<svg 
 xmlns="http://www.w3.org/2000/svg"
 xmlns:xlink="http://www.w3.org/1999/xlink"
 width="138px" height="109px">
<path fill-rule="evenodd"  fill="#000000"
 d="M136.595,104.524 C135.865,105.862 134.826,106.888 133.479,107.601 C132.132,108.315 130.559,108.672 128.763,108.672 C126.944,108.672 125.355,108.315 123.997,107.601 C122.638,106.888 121.594,105.862 120.864,104.524 C120.134,103.186 119.770,101.625 119.770,99.841 C119.770,98.057 120.134,96.496 120.864,95.158 C121.594,93.820 122.638,92.794 123.997,92.081 C125.355,91.367 126.944,91.010 128.763,91.010 C130.559,91.010 132.132,91.367 133.479,92.081 C134.826,92.794 135.865,93.820 136.595,95.158 C137.324,96.496 137.689,98.057 137.689,99.841 C137.689,101.625 137.324,103.186 136.595,104.524 ZM131.643,96.111 C130.980,95.275 130.021,94.857 128.763,94.857 C127.483,94.857 126.506,95.275 125.833,96.111 C125.159,96.947 124.822,98.191 124.822,99.841 C124.822,103.164 126.136,104.825 128.763,104.825 C130.021,104.825 130.980,104.413 131.643,103.587 C132.305,102.763 132.637,101.513 132.637,99.841 C132.637,98.191 132.305,96.947 131.643,96.111 ZM111.484,105.895 C110.967,106.765 110.237,107.445 109.294,107.936 C108.351,108.426 107.284,108.672 106.094,108.672 C104.634,108.672 103.332,108.298 102.187,107.551 C101.042,106.804 100.149,105.756 99.509,104.407 C98.869,103.058 98.549,101.513 98.549,99.774 C98.549,98.035 98.869,96.502 99.509,95.175 C100.149,93.848 101.036,92.822 102.170,92.097 C103.304,91.373 104.612,91.010 106.094,91.010 C107.240,91.010 108.284,91.250 109.227,91.729 C110.170,92.209 110.899,92.872 111.416,93.720 L111.416,83.785 L116.503,83.785 L116.503,108.404 L111.484,108.404 L111.484,105.895 ZM110.456,96.178 C109.771,95.320 108.811,94.890 107.576,94.890 C106.318,94.890 105.342,95.314 104.646,96.161 C103.950,97.009 103.602,98.213 103.602,99.774 C103.602,101.380 103.950,102.623 104.646,103.504 C105.342,104.385 106.318,104.825 107.576,104.825 C108.834,104.825 109.800,104.396 110.473,103.537 C111.147,102.679 111.484,101.446 111.484,99.841 C111.484,98.258 111.141,97.037 110.456,96.178 ZM90.263,105.895 C89.746,106.765 89.017,107.445 88.074,107.936 C87.131,108.426 86.064,108.672 84.874,108.672 C83.392,108.672 82.083,108.315 80.950,107.601 C79.815,106.888 78.929,105.868 78.289,104.541 C77.649,103.214 77.329,101.681 77.329,99.941 C77.329,98.202 77.649,96.652 78.289,95.292 C78.929,93.932 79.821,92.878 80.966,92.131 C82.112,91.384 83.414,91.010 84.874,91.010 C86.064,91.010 87.131,91.267 88.074,91.779 C89.017,92.293 89.746,92.984 90.263,93.853 L90.263,91.445 L95.282,91.445 L95.282,108.404 L90.263,108.404 L90.263,105.895 ZM89.253,96.178 C88.579,95.320 87.613,94.890 86.356,94.890 C85.098,94.890 84.121,95.337 83.425,96.228 C82.729,97.120 82.381,98.358 82.381,99.941 C82.381,101.525 82.723,102.734 83.409,103.571 C84.093,104.407 85.076,104.825 86.356,104.825 C87.613,104.825 88.579,104.402 89.253,103.554 C89.926,102.707 90.263,101.480 90.263,99.874 C90.263,98.269 89.926,97.037 89.253,96.178 ZM69.414,66.124 C51.457,66.659 46.298,50.066 45.703,48.410 C45.109,46.754 42.990,37.049 48.141,30.146 C54.914,21.067 53.278,19.306 54.899,10.451 C55.426,7.576 60.132,0.462 68.416,-0.002 C77.424,-0.506 92.753,20.792 93.013,40.708 C93.332,65.129 69.414,66.124 69.414,66.124 ZM68.703,26.992 C64.620,27.053 57.899,34.570 57.999,40.453 C58.099,46.335 61.792,51.854 68.901,52.004 C76.011,52.155 80.146,46.551 80.002,40.453 C79.857,34.354 72.786,26.931 68.703,26.992 ZM53.549,92.081 C54.896,92.794 55.934,93.820 56.664,95.158 C57.394,96.496 57.759,98.057 57.759,99.841 C57.759,101.625 57.394,103.186 56.664,104.524 C55.934,105.862 54.896,106.888 53.549,107.601 C52.201,108.315 50.629,108.672 48.833,108.672 C47.014,108.672 45.425,108.315 44.067,107.601 C42.708,106.888 41.664,105.862 40.934,104.524 C40.204,103.186 39.839,101.625 39.839,99.841 C39.839,98.057 40.204,96.496 40.934,95.158 C41.664,93.820 42.708,92.794 44.067,92.081 C45.425,91.367 47.014,91.010 48.833,91.010 C50.629,91.010 52.201,91.367 53.549,92.081 ZM45.902,96.111 C45.229,96.947 44.892,98.191 44.892,99.841 C44.892,103.164 46.206,104.825 48.833,104.825 C50.090,104.825 51.050,104.413 51.713,103.587 C52.375,102.763 52.707,101.513 52.707,99.841 C52.707,98.191 52.375,96.947 51.713,96.111 C51.050,95.275 50.090,94.857 48.833,94.857 C47.553,94.857 46.576,95.275 45.902,96.111 ZM27.511,108.404 L20.101,91.478 L25.423,91.478 L29.802,102.450 L34.315,91.478 L39.334,91.478 L31.823,108.404 L27.511,108.404 ZM13.364,105.895 C12.848,106.765 12.118,107.445 11.175,107.936 C10.232,108.426 9.165,108.672 7.975,108.672 C6.493,108.672 5.184,108.315 4.051,107.601 C2.917,106.888 2.030,105.868 1.390,104.541 C0.750,103.214 0.430,101.681 0.430,99.941 C0.430,98.202 0.750,96.652 1.390,95.292 C2.030,93.932 2.922,92.878 4.068,92.131 C5.213,91.384 6.515,91.010 7.975,91.010 C9.165,91.010 10.232,91.267 11.175,91.779 C12.118,92.293 12.848,92.984 13.364,93.853 L13.364,91.445 L18.383,91.445 L18.383,108.404 L13.364,108.404 L13.364,105.895 ZM12.354,96.178 C11.680,95.320 10.714,94.890 9.457,94.890 C8.199,94.890 7.222,95.337 6.527,96.228 C5.830,97.120 5.482,98.358 5.482,99.941 C5.482,101.525 5.824,102.734 6.510,103.571 C7.194,104.407 8.177,104.825 9.457,104.825 C10.714,104.825 11.680,104.402 12.354,103.554 C13.028,102.707 13.364,101.480 13.364,99.874 C13.364,98.269 13.028,97.037 12.354,96.178 ZM64.546,92.131 C65.927,91.384 67.527,91.010 69.346,91.010 C70.581,91.010 71.782,91.200 72.950,91.579 C74.118,91.958 75.050,92.471 75.746,93.117 L74.399,96.630 C73.725,96.094 72.984,95.676 72.175,95.375 C71.367,95.074 70.581,94.924 69.818,94.924 C68.425,94.924 67.342,95.342 66.567,96.178 C65.792,97.014 65.405,98.235 65.405,99.841 C65.405,101.469 65.787,102.701 66.550,103.537 C67.313,104.373 68.403,104.791 69.818,104.791 C70.581,104.791 71.367,104.641 72.175,104.340 C72.984,104.039 73.725,103.621 74.399,103.086 L75.746,106.598 C75.005,107.245 74.039,107.752 72.849,108.120 C71.659,108.488 70.412,108.672 69.110,108.672 C66.325,108.672 64.142,107.891 62.559,106.330 C60.976,104.770 60.184,102.640 60.184,99.941 C60.184,98.180 60.566,96.624 61.329,95.275 C62.092,93.926 63.165,92.878 64.546,92.131 Z"/>
</svg>